<svg width="231" height="134" viewBox="0 0 231 134" fill="none" xmlns="http://www.w3.org/2000/svg">
<path d="M84 122.581V121.712H87.5913V122.581L86.472 122.773V126.215H91.32V122.773L90.2007 122.581V121.712H93.792V122.581L92.6727 122.773V130.622L93.792 130.814V131.676H90.2007V130.814L91.32 130.622V127.276H86.472V130.622L87.5913 130.814V131.676H84V130.814L85.1193 130.622V122.773L84 122.581Z" fill="white"/>
<path d="M99.7798 131.676C99.7386 131.476 99.7066 131.295 99.6837 131.136C99.6608 130.976 99.6448 130.816 99.6356 130.657C99.3747 130.99 99.0474 131.268 98.6537 131.491C98.2646 131.71 97.848 131.82 97.4039 131.82C96.6303 131.82 96.042 131.633 95.6392 131.259C95.2363 130.88 95.0349 130.349 95.0349 129.664C95.0349 128.962 95.3187 128.421 95.8864 128.042C96.4586 127.659 97.2414 127.467 98.2348 127.467H99.6288V126.605C99.6288 126.172 99.4914 125.829 99.2168 125.579C98.9421 125.323 98.5598 125.195 98.07 125.195C97.7313 125.195 97.4314 125.239 97.1705 125.325C96.9141 125.412 96.7058 125.531 96.5456 125.681L96.4014 126.461H95.3576V125.024C95.6964 124.755 96.1061 124.541 96.5868 124.381C97.0675 124.217 97.5893 124.135 98.1524 124.135C98.9947 124.135 99.6768 124.349 100.199 124.778C100.721 125.207 100.981 125.82 100.981 126.619V130.184C100.981 130.28 100.981 130.374 100.981 130.465C100.986 130.556 100.993 130.647 101.002 130.739L101.551 130.814V131.676H99.7798ZM97.6031 130.691C98.0517 130.691 98.4614 130.584 98.8322 130.369C99.203 130.155 99.4685 129.897 99.6288 129.596V128.378H98.1867C97.6328 128.378 97.1934 128.505 96.8683 128.761C96.5479 129.016 96.3877 129.327 96.3877 129.692C96.3877 130.016 96.4884 130.264 96.6898 130.438C96.8912 130.606 97.1956 130.691 97.6031 130.691Z" fill="white"/>
<path d="M102.678 130.814L103.797 130.622V125.332L102.678 125.141V124.271H105.15V130.622L106.269 130.814V131.676H102.678V130.814ZM105.15 122.376H103.797V121H105.15V122.376Z" fill="white"/>
<path d="M107.306 125.141V124.271H109.634L109.764 125.346C109.975 124.967 110.233 124.671 110.54 124.456C110.851 124.242 111.206 124.135 111.604 124.135C111.71 124.135 111.817 124.144 111.927 124.162C112.042 124.176 112.129 124.192 112.188 124.21L112.01 125.462L111.24 125.421C110.883 125.421 110.584 125.506 110.341 125.674C110.098 125.839 109.911 126.071 109.778 126.372V130.622L110.897 130.814V131.676H107.306V130.814L108.425 130.622V125.332L107.306 125.141Z" fill="white"/>
<path d="M116.329 130.766C116.777 130.766 117.171 130.629 117.51 130.355C117.853 130.077 118.025 129.737 118.025 129.336H119.24L119.254 129.377C119.277 130.016 118.991 130.584 118.396 131.081C117.805 131.574 117.116 131.82 116.329 131.82C115.248 131.82 114.422 131.469 113.85 130.766C113.282 130.063 112.998 129.181 112.998 128.118V127.83C112.998 126.776 113.284 125.898 113.857 125.195C114.429 124.488 115.253 124.135 116.329 124.135C116.924 124.135 117.457 124.233 117.929 124.429C118.405 124.625 118.798 124.894 119.11 125.236L119.172 126.879H118.094L117.798 125.715C117.638 125.56 117.432 125.435 117.18 125.339C116.928 125.243 116.645 125.195 116.329 125.195C115.619 125.195 115.111 125.451 114.804 125.962C114.502 126.468 114.351 127.091 114.351 127.83V128.118C114.351 128.875 114.502 129.507 114.804 130.013C115.106 130.515 115.615 130.766 116.329 130.766Z" fill="white"/>
<path d="M125.887 130.581C125.654 130.978 125.352 131.284 124.981 131.498C124.615 131.713 124.191 131.82 123.711 131.82C122.905 131.82 122.275 131.562 121.822 131.047C121.369 130.531 121.142 129.728 121.142 128.638V125.332L120.291 125.141V124.271H122.495V128.651C122.495 129.441 122.612 129.984 122.845 130.28C123.079 130.577 123.443 130.725 123.937 130.725C124.418 130.725 124.814 130.629 125.125 130.438C125.441 130.241 125.679 129.965 125.839 129.609V125.332L124.844 125.141V124.271H127.192V130.622L128.043 130.814V131.676H125.977L125.887 130.581Z" fill="white"/>
<path d="M131.476 122.485V124.271H132.884V125.271H131.476V129.767C131.476 130.114 131.547 130.358 131.689 130.499C131.836 130.641 132.028 130.711 132.266 130.711C132.385 130.711 132.518 130.702 132.664 130.684C132.815 130.661 132.941 130.638 133.042 130.615L133.227 131.539C133.099 131.622 132.912 131.688 132.664 131.738C132.417 131.793 132.17 131.82 131.923 131.82C131.373 131.82 130.936 131.656 130.611 131.327C130.286 130.994 130.124 130.474 130.124 129.767V125.271H128.95V124.271H130.124V122.485H131.476Z" fill="white"/>
<path d="M139.951 126.598H138.935L138.715 125.709C138.55 125.553 138.342 125.43 138.09 125.339C137.843 125.243 137.561 125.195 137.246 125.195C136.765 125.195 136.408 125.3 136.174 125.51C135.941 125.72 135.824 125.973 135.824 126.27C135.824 126.562 135.927 126.792 136.133 126.961C136.339 127.13 136.758 127.28 137.39 127.413C138.328 127.613 139.026 127.887 139.484 128.234C139.942 128.576 140.171 129.037 140.171 129.616C140.171 130.273 139.903 130.805 139.367 131.211C138.836 131.617 138.14 131.82 137.28 131.82C136.717 131.82 136.211 131.756 135.762 131.628C135.314 131.496 134.913 131.307 134.561 131.06L134.554 129.37H135.57L135.824 130.362C135.98 130.504 136.19 130.606 136.456 130.67C136.726 130.734 137.001 130.766 137.28 130.766C137.761 130.766 138.136 130.67 138.406 130.479C138.681 130.282 138.818 130.027 138.818 129.712C138.818 129.416 138.704 129.171 138.475 128.98C138.25 128.788 137.822 128.622 137.191 128.48C136.289 128.284 135.609 128.017 135.151 127.68C134.693 127.342 134.464 126.886 134.464 126.311C134.464 125.709 134.721 125.195 135.234 124.771C135.751 124.347 136.422 124.135 137.246 124.135C137.809 124.135 138.314 124.208 138.763 124.354C139.212 124.5 139.585 124.703 139.882 124.963L139.951 126.598Z" fill="white"/>
<path d="M83 9.10207L83.7416 8.99942L87.2368 0H88.3973L91.8307 8.99942L92.5654 9.10207V9.96438H89.6951V9.10207L90.4505 8.97204L89.7913 7.13794H85.7879L85.1081 8.97204L85.8635 9.10207V9.96438H83V9.10207ZM86.2068 6.00874H89.3793L87.8274 1.73145H87.7862L86.2068 6.00874Z" fill="white"/>
<path d="M95.319 3.42872L94.4675 3.57928L95.4358 7.26801L95.5937 8.16453H95.6349L95.8272 7.26801L97.3104 2.55957H98.3953L99.8859 7.26801L100.098 8.26719H100.14L100.339 7.26801L101.252 3.57928L100.387 3.42872V2.55957H103.216V3.42872L102.57 3.52453L100.696 9.96442H99.6039L98.1619 5.45444L97.8529 4.20889L97.8117 4.21574L97.5233 5.45444L96.1087 9.96442H95.0169L93.1423 3.52453L92.4899 3.42872V2.55957H95.319V3.42872Z" fill="white"/>
<path d="M107.707 10.108C106.672 10.108 105.848 9.76586 105.235 9.08149C104.626 8.39256 104.321 7.50061 104.321 6.40562V6.1045C104.321 5.05057 104.635 4.17459 105.262 3.47653C105.894 2.77392 106.64 2.42261 107.501 2.42261C108.499 2.42261 109.254 2.72373 109.767 3.32597C110.284 3.92821 110.543 4.7312 110.543 5.73494V6.57671H105.722L105.702 6.61093C105.715 7.32267 105.896 7.90895 106.244 8.36975C106.592 8.826 107.08 9.05412 107.707 9.05412C108.165 9.05412 108.565 8.99025 108.908 8.8625C109.256 8.73019 109.556 8.54997 109.808 8.32185L110.337 9.19784C110.071 9.45333 109.719 9.67005 109.279 9.84798C108.844 10.0213 108.32 10.108 107.707 10.108ZM107.501 3.48338C107.048 3.48338 106.661 3.675 106.34 4.05824C106.02 4.43693 105.823 4.9137 105.75 5.48857L105.764 5.52279H109.19V5.34485C109.19 4.81561 109.048 4.37305 108.764 4.01718C108.48 3.66131 108.059 3.48338 107.501 3.48338Z" fill="white"/>
<path d="M117.567 4.88633H116.551L116.331 3.99665C116.167 3.84153 115.958 3.71834 115.707 3.62709C115.459 3.53128 115.178 3.48338 114.862 3.48338C114.381 3.48338 114.024 3.58831 113.791 3.79818C113.557 4.00806 113.441 4.26127 113.441 4.55783C113.441 4.84983 113.544 5.08023 113.75 5.24904C113.956 5.41785 114.374 5.56841 115.006 5.70072C115.945 5.90147 116.643 6.17522 117.101 6.52196C117.558 6.86415 117.787 7.32495 117.787 7.90438C117.787 8.56138 117.519 9.0929 116.984 9.49896C116.453 9.90501 115.757 10.108 114.896 10.108C114.333 10.108 113.827 10.0441 113.379 9.91642C112.93 9.78411 112.53 9.59477 112.177 9.3484L112.17 7.65801H113.186L113.441 8.65034C113.596 8.79178 113.807 8.89443 114.072 8.95831C114.342 9.02218 114.617 9.05412 114.896 9.05412C115.377 9.05412 115.752 8.95831 116.022 8.76669C116.297 8.5705 116.434 8.315 116.434 8.0002C116.434 7.70364 116.32 7.45955 116.091 7.26792C115.867 7.0763 115.439 6.90977 114.807 6.76833C113.905 6.57215 113.225 6.30525 112.768 5.96763C112.31 5.63001 112.081 5.17376 112.081 4.59889C112.081 3.99665 112.337 3.48338 112.85 3.05907C113.367 2.63476 114.038 2.42261 114.862 2.42261C115.425 2.42261 115.931 2.49561 116.38 2.6416C116.828 2.7876 117.201 2.99063 117.499 3.25069L117.567 4.88633Z" fill="white"/>
<path d="M119.058 6.19347C119.058 5.09848 119.355 4.1974 119.95 3.49022C120.545 2.77848 121.353 2.42261 122.374 2.42261C123.4 2.42261 124.21 2.7762 124.805 3.48338C125.405 4.19055 125.705 5.09392 125.705 6.19347V6.34403C125.705 7.44814 125.407 8.3515 124.812 9.05412C124.217 9.75674 123.409 10.108 122.388 10.108C121.358 10.108 120.545 9.75674 119.95 9.05412C119.355 8.34694 119.058 7.44358 119.058 6.34403V6.19347ZM120.41 6.34403C120.41 7.12877 120.575 7.77663 120.905 8.28763C121.239 8.79862 121.733 9.05412 122.388 9.05412C123.029 9.05412 123.516 8.79862 123.851 8.28763C124.185 7.77663 124.352 7.12877 124.352 6.34403V6.19347C124.352 5.41785 124.185 4.77227 123.851 4.25671C123.516 3.74115 123.024 3.48338 122.374 3.48338C121.724 3.48338 121.234 3.74115 120.905 4.25671C120.575 4.77227 120.41 5.41785 120.41 6.19347V6.34403Z" fill="white"/>
<path d="M126.68 9.10202L127.799 8.9104V3.62025L126.68 3.42863V2.55948H129.014L129.104 3.52444C129.342 3.17313 129.648 2.90166 130.024 2.71004C130.399 2.51842 130.834 2.42261 131.329 2.42261C131.823 2.42261 132.246 2.53667 132.599 2.76479C132.956 2.99291 133.224 3.3351 133.402 3.79134C133.636 3.3716 133.945 3.03854 134.329 2.79217C134.714 2.54579 135.162 2.42261 135.675 2.42261C136.435 2.42261 137.035 2.68267 137.474 3.20279C137.914 3.71834 138.134 4.49624 138.134 5.53648V8.9104L139.253 9.10202V9.96433H135.655V9.10202L136.774 8.9104V5.52279C136.774 4.7928 136.648 4.27724 136.396 3.97612C136.144 3.67044 135.771 3.51759 135.277 3.51759C134.805 3.51759 134.425 3.68412 134.137 4.01718C133.853 4.34568 133.688 4.76086 133.643 5.26273V8.9104L134.762 9.10202V9.96433H131.171V9.10202L132.29 8.9104V5.52279C132.29 4.8293 132.159 4.32287 131.898 4.00349C131.642 3.67956 131.269 3.51759 130.779 3.51759C130.367 3.51759 130.028 3.602 129.763 3.77081C129.497 3.93962 129.294 4.17687 129.152 4.48255V8.9104L130.271 9.10202V9.96433H126.68V9.10202Z" fill="white"/>
<path d="M143.565 10.108C142.531 10.108 141.707 9.76586 141.093 9.08149C140.484 8.39256 140.18 7.50061 140.18 6.40562V6.1045C140.18 5.05057 140.493 4.17459 141.121 3.47653C141.752 2.77392 142.499 2.42261 143.359 2.42261C144.357 2.42261 145.112 2.72373 145.625 3.32597C146.142 3.92821 146.401 4.7312 146.401 5.73494V6.57671H141.581L141.56 6.61093C141.574 7.32267 141.755 7.90895 142.103 8.36975C142.45 8.826 142.938 9.05412 143.565 9.05412C144.023 9.05412 144.423 8.99025 144.767 8.8625C145.115 8.73019 145.415 8.54997 145.666 8.32185L146.195 9.19784C145.93 9.45333 145.577 9.67005 145.138 9.84798C144.703 10.0213 144.179 10.108 143.565 10.108ZM143.359 3.48338C142.906 3.48338 142.519 3.675 142.199 4.05824C141.878 4.43693 141.681 4.9137 141.608 5.48857L141.622 5.52279H145.048V5.34485C145.048 4.81561 144.906 4.37305 144.623 4.01718C144.339 3.66131 143.918 3.48338 143.359 3.48338Z" fill="white"/>
<path d="M230.033 103H0V105.002H230.033V103Z" fill="#FF9000"/>
<path d="M230.033 25.9824H0V27.9847H230.033V25.9824Z" fill="#FF9000"/>
<path d="M216.014 63.9932C217.678 63.9932 219.027 65.3379 219.027 66.9966C219.027 68.6553 217.678 70 216.014 70C214.349 70 213 68.6553 213 66.9966C213 65.3379 214.349 63.9932 216.014 63.9932Z" fill="white"/>
<path d="M14.0135 63.9932C15.6779 63.9932 17.0271 65.3379 17.0271 66.9966C17.0271 68.6553 15.6779 70 14.0135 70C12.3492 70 11 68.6553 11 66.9966C11 65.3379 12.3492 63.9932 14.0135 63.9932Z" fill="white"/>
<path d="M62.132 77.872C59.7613 77.872 57.82 77.116 56.308 75.604C55.188 74.484 54.4507 73.0747 54.096 71.376C52.3227 72.72 50.148 73.392 47.572 73.392C45.5373 73.392 43.68 72.9533 42 72.076C40.3387 71.18 39.032 69.9573 38.08 68.408C37.1467 66.8587 36.68 65.1133 36.68 63.172C36.68 61.2307 37.1467 59.4853 38.08 57.936C39.032 56.368 40.3387 55.1547 42 54.296C43.6613 53.4373 45.5187 53.008 47.572 53.008C50.148 53.008 52.416 53.6427 54.376 54.912L54.936 58.86H54.684C54.124 56.6947 52.8547 55.22 50.876 54.436C49.9053 54.044 48.804 53.848 47.572 53.848C45.052 53.848 42.952 54.7253 41.272 56.48C39.6107 58.2347 38.78 60.4653 38.78 63.172C38.78 65.86 39.62 68.0907 41.3 69.864C42.98 71.6373 45.0707 72.5333 47.572 72.552C48.7853 72.552 49.9427 72.3373 51.044 71.908C52.1453 71.4787 53.088 70.8813 53.872 70.116V65.16C53.872 64.7493 53.7507 64.4413 53.508 64.236C53.2653 64.012 52.92 63.9 52.472 63.9H52.024V63.62H57.512V63.9H57.092C56.6253 63.9 56.2707 64.012 56.028 64.236C55.7853 64.4413 55.6733 64.7493 55.692 65.16V69.472C55.804 72.4213 56.7653 74.5307 58.576 75.8C59.8453 76.696 61.488 77.144 63.504 77.144C64.344 77.144 65.2587 77.06 66.248 76.892L66.276 77.172C64.7827 77.6387 63.4013 77.872 62.132 77.872ZM66.4357 59.924C66.361 59.6813 66.3237 59.476 66.3237 59.308C66.3237 59.1213 66.333 58.916 66.3517 58.692C66.3704 58.468 66.4077 58.16 66.4637 57.768C66.5384 57.376 66.669 56.9933 66.8557 56.62C67.0424 56.228 67.257 55.8547 67.4997 55.5C67.7424 55.1453 68.0504 54.8187 68.4237 54.52C68.8157 54.2213 69.245 53.96 69.7117 53.736C70.701 53.2507 71.905 53.008 73.3237 53.008C76.1797 53.008 78.5037 53.96 80.2957 55.864C82.1064 57.7493 83.0117 60.1667 83.0117 63.116C83.0117 66.0653 81.9477 68.52 79.8197 70.48C77.6917 72.4213 74.9944 73.392 71.7277 73.392C68.461 73.392 65.745 72.4213 63.5797 70.48C61.433 68.5387 60.3597 66.0187 60.3597 62.92C60.3597 60.9227 60.8264 59.1493 61.7597 57.6C62.693 56.0507 64.0277 54.8373 65.7637 53.96L65.9317 54.212C64.7184 55.0147 63.841 56.172 63.2997 57.684C62.777 59.196 62.5157 60.8013 62.5157 62.5C62.5157 65.6547 63.3744 68.1187 65.0917 69.892C66.809 71.6653 69.0117 72.552 71.6997 72.552C74.3877 72.552 76.581 71.6653 78.2797 69.892C79.997 68.1 80.8557 65.748 80.8557 62.836C80.8557 60.316 80.1744 58.188 78.8117 56.452C77.4677 54.716 75.5637 53.848 73.0997 53.848C71.9984 53.848 70.9997 54.044 70.1037 54.436C68.4797 55.1267 67.4064 56.2653 66.8837 57.852C66.7344 58.3187 66.6597 58.72 66.6597 59.056C66.6597 59.392 66.6784 59.6627 66.7157 59.868L66.4357 59.924ZM95.7716 60.792C95.4356 61.1467 95.0529 61.408 94.6236 61.576C96.4529 61.8373 97.8436 62.4907 98.7956 63.536C99.7476 64.5627 100.224 65.8227 100.224 67.316C100.224 69.1267 99.4956 70.592 98.0396 71.712C96.5836 72.832 94.6703 73.392 92.2996 73.392C89.9289 73.392 88.0716 72.8133 86.7276 71.656C85.3836 70.48 84.7116 68.828 84.7116 66.7C84.7116 66.588 84.7116 66.476 84.7116 66.364L85.0196 66.308C85.3929 69.0893 86.5503 70.8907 88.4916 71.712V55.416C88.4543 54.912 88.2583 54.5013 87.9036 54.184C87.5676 53.848 87.1569 53.68 86.6716 53.68H86.3356V53.4H91.0396C92.7943 53.4 94.1943 53.8013 95.2396 54.604C96.3036 55.4067 96.8356 56.4613 96.8356 57.768C96.8356 59.056 96.4809 60.064 95.7716 60.792ZM90.3116 54.296V72.216C90.9276 72.3093 91.6369 72.356 92.4396 72.356C94.2316 72.356 95.6223 71.88 96.6116 70.928C97.6196 69.9573 98.1236 68.7067 98.1236 67.176C98.1236 66.3547 97.9649 65.6267 97.6476 64.992C97.3489 64.3573 96.9663 63.8627 96.4996 63.508C95.2676 62.556 93.5316 62.08 91.2916 62.08C91.2729 62.08 91.2636 62.08 91.2636 62.08L91.2356 61.828C91.2543 61.828 91.2636 61.828 91.2636 61.828C92.2156 61.828 93.0276 61.52 93.6996 60.904C94.3903 60.2693 94.7356 59.2987 94.7356 57.992C94.7356 55.528 93.3823 54.296 90.6756 54.296H90.3116ZM103.079 72.72C103.564 72.72 103.975 72.552 104.311 72.216C104.666 71.8613 104.852 71.4413 104.871 70.956V55.276C104.871 54.828 104.694 54.4547 104.339 54.156C103.984 53.8387 103.564 53.68 103.079 53.68H102.743L102.715 53.4H108.399C108.978 53.4 109.603 53.344 110.275 53.232C110.966 53.12 111.451 53.008 111.731 52.896V56.424H111.451V55.92C111.451 55.472 111.292 55.0893 110.975 54.772C110.676 54.4547 110.312 54.2867 109.883 54.268H106.691V62.92H112.011C112.384 62.9013 112.702 62.7613 112.963 62.5C113.224 62.2387 113.355 61.912 113.355 61.52V61.128H113.635V65.552H113.355V65.132C113.355 64.7587 113.224 64.4413 112.963 64.18C112.72 63.9187 112.412 63.7787 112.039 63.76H106.691V72.132H112.655C114.036 72.132 115.091 71.824 115.819 71.208C116.547 70.592 117.154 69.6773 117.639 68.464H117.919L116.295 73H102.715V72.72H103.079ZM121.375 52.448C122.588 51.944 123.755 51.692 124.875 51.692C125.808 51.692 126.77 52.0373 127.759 52.728C128.3 53.1013 128.907 53.8293 129.579 54.912C130.027 55.6587 130.596 57.012 131.287 58.972L134.703 68.66C135.487 70.8253 136.28 72.5427 137.083 73.812C137.904 75.1 138.651 76.0613 139.323 76.696C139.995 77.3493 140.695 77.8067 141.423 78.068C142.151 78.3293 142.748 78.46 143.215 78.46C143.7 78.46 144.13 78.4227 144.503 78.348L144.531 78.628C143.635 78.9267 142.758 79.076 141.899 79.076C141.04 79.076 140.182 78.852 139.323 78.404C138.464 77.9747 137.662 77.368 136.915 76.584C135.31 74.96 133.947 72.4867 132.827 69.164L131.735 65.972H124.063L122.131 70.956C122.038 71.18 121.991 71.404 121.991 71.628C121.991 71.852 122.084 72.0947 122.271 72.356C122.476 72.5987 122.784 72.72 123.195 72.72H123.419V73H117.791V72.72H118.043C118.491 72.72 118.93 72.5893 119.359 72.328C119.788 72.048 120.143 71.6373 120.423 71.096L127.367 54.464C126.359 53.0267 125.108 52.308 123.615 52.308C122.943 52.308 122.224 52.448 121.459 52.728L121.375 52.448ZM124.371 65.132H131.455L129.243 58.608C128.814 57.3573 128.422 56.3773 128.067 55.668L124.371 65.132ZM161.828 48.584C161.978 48.584 162.136 48.584 162.304 48.584V48.864C160.251 48.864 158.627 49.5453 157.432 50.908C156.238 52.252 155.64 54.2027 155.64 56.76V66.084C155.64 68.268 154.95 70.032 153.568 71.376C152.187 72.72 150.348 73.392 148.052 73.392C145.756 73.392 143.89 72.7293 142.452 71.404C141.034 70.06 140.324 68.296 140.324 66.112V55.052C140.324 54.5107 140.082 54.1093 139.596 53.848C139.372 53.736 139.12 53.68 138.84 53.68H138.392V53.4H144.076V53.68H143.628C143.218 53.68 142.872 53.8107 142.592 54.072C142.312 54.3147 142.163 54.632 142.144 55.024V65.72C142.144 67.7547 142.686 69.3973 143.768 70.648C144.87 71.88 146.307 72.496 148.08 72.496C149.966 72.496 151.478 71.908 152.616 70.732C153.755 69.556 154.324 68.0067 154.324 66.084V56.788C154.324 54.044 155.015 51.9907 156.396 50.628C157.796 49.2653 159.607 48.584 161.828 48.584ZM158.146 58.972C157.567 58.2813 157.278 57.6 157.278 56.928C157.278 56.2373 157.436 55.6493 157.754 55.164C158.071 54.66 158.584 54.24 159.294 53.904C160.003 53.5493 160.806 53.372 161.702 53.372H173.182C173.76 53.372 174.395 53.316 175.086 53.204C175.795 53.092 176.29 52.98 176.57 52.868V56.396L176.29 56.368V55.892C176.29 55.444 176.131 55.0613 175.814 54.744C175.496 54.408 175.123 54.2307 174.694 54.212H169.374V70.984C169.392 71.656 169.691 72.16 170.27 72.496C170.55 72.6453 170.848 72.72 171.166 72.72H171.53V73H165.398V72.72H165.762C166.247 72.72 166.658 72.552 166.994 72.216C167.348 71.88 167.535 71.4787 167.554 71.012V54.212H161.702C160.208 54.212 159.126 54.688 158.454 55.64C158.099 56.1253 157.922 56.6387 157.922 57.18C157.922 57.7027 158.071 58.2533 158.37 58.832L158.146 58.972ZM175.958 51.804C176.089 51.804 176.322 51.804 176.658 51.804C176.994 51.804 177.451 51.86 178.03 51.972C178.609 52.084 179.141 52.252 179.626 52.476C180.13 52.6813 180.615 52.9893 181.082 53.4C181.567 53.792 181.978 54.1653 182.314 54.52C182.65 54.856 182.986 55.304 183.322 55.864C183.677 56.424 183.957 56.9 184.162 57.292C184.386 57.684 184.629 58.1973 184.89 58.832C185.226 59.6347 185.497 60.3347 185.702 60.932C185.907 61.5107 186.019 61.828 186.038 61.884C186.057 61.94 186.085 62.0053 186.122 62.08C186.178 62.2293 186.225 62.36 186.262 62.472C186.318 62.3413 186.449 61.996 186.654 61.436C186.859 60.876 187.046 60.372 187.214 59.924C187.401 59.476 187.681 58.8413 188.054 58.02C188.427 57.1987 188.763 56.5547 189.062 56.088C189.379 55.6027 189.781 55.052 190.266 54.436C190.751 53.82 191.237 53.344 191.722 53.008C192.917 52.2053 194.186 51.804 195.53 51.804V52.084C194.485 52.084 193.411 52.6347 192.31 53.736C191.227 54.8373 190.294 56.172 189.51 57.74C188.745 59.2893 188.11 60.904 187.606 62.584C187.121 64.2453 186.878 65.664 186.878 66.84V70.956C186.878 71.628 187.167 72.132 187.746 72.468C188.026 72.636 188.334 72.72 188.67 72.72H189.006V73H182.902V72.72H183.266C183.733 72.72 184.143 72.552 184.498 72.216C184.853 71.88 185.039 71.4693 185.058 70.984V66.812C185.058 65.5613 184.797 64.096 184.274 62.416C183.751 60.736 183.079 59.1307 182.258 57.6C181.437 56.0507 180.457 54.744 179.318 53.68C178.179 52.616 177.059 52.084 175.958 52.084V51.804Z" fill="white"/>
</svg>